<svg xmlns="http://www.w3.org/2000/svg" viewBox="0 0 48 48"><path fill="#FFC107" d="M43.6 20.5H42V20H24v8h11.3c-1.6 4.7-6.1 8-11.3 8-6.6 0-12-5.4-12-12s5.4-12 12-12c3.1 0 5.8 1.2 7.9 3l5.7-5.7C34.7 6.5 29.6 4.5 24 4.5 13.2 4.5 4.5 13.2 4.5 24S13.2 43.5 24 43.5 43.5 34.8 43.5 24c0-1.2-.1-2.3-.4-3.5z"/><path fill="#FF3D00" d="M6.3 14.7l6.6 4.8C14.7 15.6 19 12.5 24 12.5c3.1 0 5.8 1.2 7.9 3l5.7-5.7C34.7 6.5 29.6 4.5 24 4.5 16.3 4.5 9.6 8.9 6.3 14.7z"/><path fill="#4CAF50" d="M24 43.5c5.4 0 10.4-2.1 14.1-5.5l-6.5-5.5c-2 1.4-4.6 2.5-7.6 2.5-5.2 0-9.6-3.3-11.3-8l-6.5 5C9.5 39 16.2 43.5 24 43.5z"/><path fill="#1976D2" d="M43.6 20.5H42V20H24v8h11.3c-.8 2.3-2.3 4.3-4.2 5.7l6.5 5.5c-.5.4 7-5.1 7-15.2 0-1.2-.1-2.3-.4-3.5z"/></svg>
